<svg xmlns="http://www.w3.org/2000/svg" viewBox="0 0 960 520" font-family="'Segoe UI',system-ui,-apple-system,sans-serif">
  <defs>
    <linearGradient id="bgGrad" x1="0%" y1="0%" x2="100%" y2="100%">
      <stop offset="0%" style="stop-color:#0f172a;stop-opacity:1"/>
      <stop offset="100%" style="stop-color:#1e293b;stop-opacity:1"/>
    </linearGradient>
    <linearGradient id="coreGrad" x1="0%" y1="0%" x2="100%" y2="100%">
      <stop offset="0%" style="stop-color:#1e3a5f;stop-opacity:1"/>
      <stop offset="100%" style="stop-color:#0f2942;stop-opacity:1"/>
    </linearGradient>
    <linearGradient id="inputGrad" x1="0%" y1="0%" x2="100%" y2="0%">
      <stop offset="0%" style="stop-color:#065f46;stop-opacity:1"/>
      <stop offset="100%" style="stop-color:#047857;stop-opacity:1"/>
    </linearGradient>
    <linearGradient id="outputGrad" x1="0%" y1="0%" x2="100%" y2="0%">
      <stop offset="0%" style="stop-color:#7c3aed;stop-opacity:1"/>
      <stop offset="100%" style="stop-color:#6d28d9;stop-opacity:1"/>
    </linearGradient>
    <filter id="shadow" x="-4%" y="-4%" width="108%" height="108%">
      <feDropShadow dx="0" dy="2" stdDeviation="4" flood-color="#000" flood-opacity="0.3"/>
    </filter>
    <marker id="arrow" markerWidth="8" markerHeight="6" refX="8" refY="3" orient="auto">
      <path d="M0,0 L8,3 L0,6 Z" fill="#60a5fa"/>
    </marker>
    <marker id="arrowOut" markerWidth="8" markerHeight="6" refX="8" refY="3" orient="auto">
      <path d="M0,0 L8,3 L0,6 Z" fill="#a78bfa"/>
    </marker>
  </defs>

  <!-- Background -->
  <rect width="960" height="520" rx="12" fill="url(#bgGrad)"/>

  <!-- Title -->
  <text x="480" y="38" text-anchor="middle" fill="#f8fafc" font-size="20" font-weight="700" letter-spacing="0.5">@infra-graph/core</text>
  <text x="480" y="58" text-anchor="middle" fill="#94a3b8" font-size="12">Infrastructure Knowledge Graph</text>

  <!-- Input Sources (left side) -->
  <rect x="30" y="160" width="130" height="44" rx="8" fill="url(#inputGrad)" filter="url(#shadow)"/>
  <text x="95" y="178" text-anchor="middle" fill="#d1fae5" font-size="11" font-weight="600">Cloud APIs</text>
  <text x="95" y="193" text-anchor="middle" fill="#6ee7b7" font-size="9">AWS · Azure · GCP</text>

  <rect x="30" y="220" width="130" height="44" rx="8" fill="url(#inputGrad)" filter="url(#shadow)"/>
  <text x="95" y="238" text-anchor="middle" fill="#d1fae5" font-size="11" font-weight="600">Terraform</text>
  <text x="95" y="253" text-anchor="middle" fill="#6ee7b7" font-size="9">100+ resource mappings</text>

  <rect x="30" y="280" width="130" height="44" rx="8" fill="url(#inputGrad)" filter="url(#shadow)"/>
  <text x="95" y="298" text-anchor="middle" fill="#d1fae5" font-size="11" font-weight="600">Kubernetes</text>
  <text x="95" y="313" text-anchor="middle" fill="#6ee7b7" font-size="9">16 resource kinds</text>

  <!-- Arrows: Input → Core -->
  <line x1="160" y1="182" x2="210" y2="210" stroke="#60a5fa" stroke-width="1.5" marker-end="url(#arrow)" opacity="0.7"/>
  <line x1="160" y1="242" x2="210" y2="250" stroke="#60a5fa" stroke-width="1.5" marker-end="url(#arrow)" opacity="0.7"/>
  <line x1="160" y1="302" x2="210" y2="290" stroke="#60a5fa" stroke-width="1.5" marker-end="url(#arrow)" opacity="0.7"/>

  <!-- Core Box -->
  <rect x="220" y="80" width="500" height="400" rx="12" fill="url(#coreGrad)" stroke="#334155" stroke-width="1.5" filter="url(#shadow)"/>

  <!-- Core: Row 1 — Pipeline -->
  <rect x="245" y="100" width="110" height="50" rx="6" fill="#1e40af" fill-opacity="0.5" stroke="#3b82f6" stroke-width="1"/>
  <text x="300" y="122" text-anchor="middle" fill="#93c5fd" font-size="11" font-weight="600">Adapters</text>
  <text x="300" y="138" text-anchor="middle" fill="#60a5fa" font-size="9">5 + Cross-Cloud</text>

  <line x1="355" y1="125" x2="380" y2="125" stroke="#60a5fa" stroke-width="1.5" marker-end="url(#arrow)" opacity="0.6"/>

  <rect x="385" y="100" width="120" height="50" rx="6" fill="#1e40af" fill-opacity="0.5" stroke="#3b82f6" stroke-width="1"/>
  <text x="445" y="122" text-anchor="middle" fill="#93c5fd" font-size="11" font-weight="600">Graph Engine</text>
  <text x="445" y="138" text-anchor="middle" fill="#60a5fa" font-size="9">17+ methods</text>

  <line x1="505" y1="125" x2="530" y2="125" stroke="#60a5fa" stroke-width="1.5" marker-end="url(#arrow)" opacity="0.6"/>

  <rect x="535" y="100" width="110" height="50" rx="6" fill="#1e40af" fill-opacity="0.5" stroke="#3b82f6" stroke-width="1"/>
  <text x="590" y="122" text-anchor="middle" fill="#93c5fd" font-size="11" font-weight="600">MCP Server</text>
  <text x="590" y="138" text-anchor="middle" fill="#60a5fa" font-size="9">31 tools · stdio</text>

  <!-- Core: Row 2 — Analysis -->
  <rect x="245" y="170" width="110" height="50" rx="6" fill="#7c2d12" fill-opacity="0.5" stroke="#f97316" stroke-width="1"/>
  <text x="300" y="192" text-anchor="middle" fill="#fdba74" font-size="11" font-weight="600">IQL Engine</text>
  <text x="300" y="208" text-anchor="middle" fill="#fb923c" font-size="9">Lexer → Parser → Exec</text>

  <line x1="355" y1="195" x2="380" y2="195" stroke="#f97316" stroke-width="1.5" opacity="0.5"/>

  <rect x="385" y="170" width="120" height="50" rx="6" fill="#7c2d12" fill-opacity="0.5" stroke="#f97316" stroke-width="1"/>
  <text x="445" y="192" text-anchor="middle" fill="#fdba74" font-size="11" font-weight="600">Compliance</text>
  <text x="445" y="208" text-anchor="middle" fill="#fb923c" font-size="9">6 frameworks · 30+ ctrls</text>

  <line x1="505" y1="195" x2="530" y2="195" stroke="#f97316" stroke-width="1.5" opacity="0.5"/>

  <rect x="535" y="170" width="110" height="50" rx="6" fill="#7c2d12" fill-opacity="0.5" stroke="#f97316" stroke-width="1"/>
  <text x="590" y="192" text-anchor="middle" fill="#fdba74" font-size="11" font-weight="600">Cost Forecast</text>
  <text x="590" y="208" text-anchor="middle" fill="#fb923c" font-size="9">5 methods · ML-ready</text>

  <!-- Core: Row 3 — Enterprise -->
  <rect x="245" y="240" width="110" height="50" rx="6" fill="#4c1d95" fill-opacity="0.5" stroke="#8b5cf6" stroke-width="1"/>
  <text x="300" y="262" text-anchor="middle" fill="#c4b5fd" font-size="11" font-weight="600">RBAC</text>
  <text x="300" y="278" text-anchor="middle" fill="#a78bfa" font-size="9">4 roles · 9 perms</text>

  <line x1="355" y1="265" x2="380" y2="265" stroke="#8b5cf6" stroke-width="1.5" opacity="0.5"/>

  <rect x="385" y="240" width="120" height="50" rx="6" fill="#4c1d95" fill-opacity="0.5" stroke="#8b5cf6" stroke-width="1"/>
  <text x="445" y="262" text-anchor="middle" fill="#c4b5fd" font-size="11" font-weight="600">Governance</text>
  <text x="445" y="278" text-anchor="middle" fill="#a78bfa" font-size="9">7-factor risk score</text>

  <line x1="505" y1="265" x2="530" y2="265" stroke="#8b5cf6" stroke-width="1.5" opacity="0.5"/>

  <rect x="535" y="240" width="110" height="50" rx="6" fill="#4c1d95" fill-opacity="0.5" stroke="#8b5cf6" stroke-width="1"/>
  <text x="590" y="262" text-anchor="middle" fill="#c4b5fd" font-size="11" font-weight="600">Temporal</text>
  <text x="590" y="278" text-anchor="middle" fill="#a78bfa" font-size="9">Time travel · Diff</text>

  <!-- Core: Row 4 — Infrastructure -->
  <rect x="245" y="310" width="110" height="50" rx="6" fill="#164e63" fill-opacity="0.5" stroke="#22d3ee" stroke-width="1"/>
  <text x="300" y="332" text-anchor="middle" fill="#a5f3fc" font-size="11" font-weight="600">OPA Engine</text>
  <text x="300" y="348" text-anchor="middle" fill="#67e8f9" font-size="9">15 condition types</text>

  <line x1="355" y1="335" x2="380" y2="335" stroke="#22d3ee" stroke-width="1.5" opacity="0.5"/>

  <rect x="385" y="310" width="120" height="50" rx="6" fill="#164e63" fill-opacity="0.5" stroke="#22d3ee" stroke-width="1"/>
  <text x="445" y="332" text-anchor="middle" fill="#a5f3fc" font-size="11" font-weight="600">Federation</text>
  <text x="445" y="348" text-anchor="middle" fill="#67e8f9" font-size="9">Multi-cluster sync</text>

  <line x1="505" y1="335" x2="530" y2="335" stroke="#22d3ee" stroke-width="1.5" opacity="0.5"/>

  <rect x="535" y="310" width="110" height="50" rx="6" fill="#164e63" fill-opacity="0.5" stroke="#22d3ee" stroke-width="1"/>
  <text x="590" y="332" text-anchor="middle" fill="#a5f3fc" font-size="11" font-weight="600">Multi-Tenant</text>
  <text x="590" y="348" text-anchor="middle" fill="#67e8f9" font-size="9">4 isolation modes</text>

  <!-- Core: Row 5 — Storage -->
  <rect x="245" y="380" width="190" height="42" rx="6" fill="#1c1917" fill-opacity="0.5" stroke="#78716c" stroke-width="1"/>
  <text x="340" y="399" text-anchor="middle" fill="#d6d3d1" font-size="11" font-weight="600">Storage</text>
  <text x="340" y="413" text-anchor="middle" fill="#a8a29e" font-size="9">SQLite · PostgreSQL · InMemory · Temporal</text>

  <rect x="450" y="380" width="195" height="42" rx="6" fill="#1c1917" fill-opacity="0.5" stroke="#78716c" stroke-width="1"/>
  <text x="547" y="399" text-anchor="middle" fill="#d6d3d1" font-size="11" font-weight="600">Observability</text>
  <text x="547" y="413" text-anchor="middle" fill="#a8a29e" font-size="9">OTEL metrics · traces · Grafana dashboards</text>

  <!-- Core: Row 5 — NDJSON label -->
  <rect x="660" y="388" width="50" height="22" rx="4" fill="#065f46" fill-opacity="0.6" stroke="#10b981" stroke-width="0.8"/>
  <text x="685" y="403" text-anchor="middle" fill="#6ee7b7" font-size="8" font-weight="600">NDJSON</text>

  <!-- Output blocks (right side) -->
  <rect x="760" y="100" width="170" height="44" rx="8" fill="url(#outputGrad)" filter="url(#shadow)"/>
  <text x="845" y="118" text-anchor="middle" fill="#e9d5ff" font-size="11" font-weight="600">Any AI Agent</text>
  <text x="845" y="133" text-anchor="middle" fill="#c4b5fd" font-size="9">Claude · Cursor · Windsurf · Cody</text>

  <rect x="760" y="160" width="170" height="44" rx="8" fill="url(#outputGrad)" filter="url(#shadow)"/>
  <text x="845" y="178" text-anchor="middle" fill="#e9d5ff" font-size="11" font-weight="600">CLI</text>
  <text x="845" y="193" text-anchor="middle" fill="#c4b5fd" font-size="9">22 commands · graph · infra</text>

  <rect x="760" y="220" width="170" height="44" rx="8" fill="url(#outputGrad)" filter="url(#shadow)"/>
  <text x="845" y="238" text-anchor="middle" fill="#e9d5ff" font-size="11" font-weight="600">REST API</text>
  <text x="845" y="253" text-anchor="middle" fill="#c4b5fd" font-size="9">10 endpoints · auth · streaming</text>

  <rect x="760" y="280" width="170" height="44" rx="8" fill="url(#outputGrad)" filter="url(#shadow)"/>
  <text x="845" y="298" text-anchor="middle" fill="#e9d5ff" font-size="11" font-weight="600">Webhooks</text>
  <text x="845" y="313" text-anchor="middle" fill="#c4b5fd" font-size="9">AWS · Azure · GCP · GitHub</text>

  <rect x="760" y="340" width="170" height="44" rx="8" fill="url(#outputGrad)" filter="url(#shadow)"/>
  <text x="845" y="358" text-anchor="middle" fill="#e9d5ff" font-size="11" font-weight="600">Reports &amp; Export</text>
  <text x="845" y="373" text-anchor="middle" fill="#c4b5fd" font-size="9">6 formats · MD · HTML · JSON</text>

  <!-- Arrows: Core → Output -->
  <line x1="720" y1="125" x2="755" y2="122" stroke="#a78bfa" stroke-width="1.5" marker-end="url(#arrowOut)" opacity="0.7"/>
  <line x1="720" y1="195" x2="755" y2="182" stroke="#a78bfa" stroke-width="1.5" marker-end="url(#arrowOut)" opacity="0.7"/>
  <line x1="720" y1="265" x2="755" y2="242" stroke="#a78bfa" stroke-width="1.5" marker-end="url(#arrowOut)" opacity="0.7"/>
  <line x1="720" y1="335" x2="755" y2="302" stroke="#a78bfa" stroke-width="1.5" marker-end="url(#arrowOut)" opacity="0.7"/>
  <line x1="720" y1="400" x2="755" y2="362" stroke="#a78bfa" stroke-width="1.5" marker-end="url(#arrowOut)" opacity="0.7"/>

  <!-- Bottom stats bar -->
  <rect x="30" y="475" width="900" height="32" rx="6" fill="#1e293b" stroke="#334155" stroke-width="1"/>
  <text x="100" y="496" text-anchor="middle" fill="#60a5fa" font-size="10" font-weight="600">31 Tools</text>
  <text x="210" y="496" text-anchor="middle" fill="#f97316" font-size="10" font-weight="600">6 Compliance</text>
  <text x="330" y="496" text-anchor="middle" fill="#8b5cf6" font-size="10" font-weight="600">22 CLI Cmds</text>
  <text x="450" y="496" text-anchor="middle" fill="#22d3ee" font-size="10" font-weight="600">10 API Routes</text>
  <text x="575" y="496" text-anchor="middle" fill="#10b981" font-size="10" font-weight="600">4 Storage</text>
  <text x="695" y="496" text-anchor="middle" fill="#e879f9" font-size="10" font-weight="600">5 Adapters</text>
  <text x="830" y="496" text-anchor="middle" fill="#fbbf24" font-size="10" font-weight="600">1,422 Tests</text>
</svg>
